#!OML:ASF Y:\EmotionMaleHayes\Project 1\Capture day 1\Session 1\Male1.ASF
:FULLY-SPECIFIED
:DEGREES
765
root 45.2196 16.5921 6.55642 -189.381 213.925 -164.059
lowerback 13.1178 1.6687 -14.2664
upperback 5.52214 0.232121 -3.63157
thorax -1.4665 -0.0957815 4.11073
lowerneck -16.3084 -10.0703 -8.32001
upperneck 22.8989 -15.7086 13.1573
head 12.0081 -6.4089 3.67728
rclavicle -5.29513e-014 4.54223e-014
rhumerus -44.3379 8.4798 -90.6039
rradius 39.6442
rwrist -16.1568
rhand -23.0365 -38.6085
rfingers 7.12502
rthumb 3.40787 -68.561
lclavicle -5.29513e-014 4.54223e-014
lhumerus -23.2722 -21.2633 84.8163
lradius 41.8031
lwrist 7.82054
lhand -31.6685 -26.744
lfingers 7.12502
lthumb -4.92861 3.17868
rfemur -22.1954 -4.04102 14.2843
rtibia 67.7214
rfoot -14.5375 -0.227373
rtoes 19.3728
lfemur 0.654789 1.60772 -18.3723
ltibia 15.5154
lfoot -13.7777 10.8755
ltoes -28.8541
766
root 45.1706 16.6392 6.70602 -189.901 214.368 -163.589
lowerback 13.2682 1.49443 -14.442
upperback 5.46086 -0.0555433 -3.63935
thorax -1.56112 -0.232649 4.23962
lowerneck -16.4674 -10.036 -8.1928
upperneck 22.9479 -15.6819 13.0952
head 12.0375 -6.38519 3.63289
rclavicle -4.71865e-014 -5.28767e-014
rhumerus -44.983 8.26091 -89.3556
rradius 37.9627
rwrist -14.7298
rhand -22.9075 -39.362
rfingers 7.12502
rthumb 3.53246 -69.3125
lclavicle -4.71865e-014 -5.28767e-014
lhumerus -21.7655 -23.0747 84.334
lradius 42.9966
lwrist 8.4629
lhand -30.2787 -27.4961
lfingers 7.12502
lthumb -3.58657 2.45345
rfemur -23.1493 -5.23082 14.0607
rtibia 66.1966
rfoot -14.6159 -0.35492
rtoes 18.6852
lfemur 2.25634 1.77431 -18.8621
ltibia 14.1821
lfoot -13.7084 11.0767
ltoes -29.1504
767
root 45.1181 16.6771 6.86408 -190.446 215.023 -163.131
lowerback 13.2863 1.41241 -14.6345
upperback 5.46215 -0.193115 -3.61415
thorax -1.54072 -0.306171 4.39136
lowerneck -16.8004 -9.96234 -7.74575
upperneck 22.9716 -15.6227 12.866
head 12.0419 -6.33048 3.47417
rclavicle 6.28408e-014 4.96962e-017
rhumerus -45.8125 8.19037 -88.1203
rradius 36.4927
rwrist -12.7078
rhand -22.9881 -38.4849
rfingers 7.12502
rthumb 3.45462 -68.4367
lclavicle 6.28408e-014 4.96962e-017
lhumerus -20.1384 -24.621 83.7503
lradius 44.2341
lwrist 8.96353
lhand -30.4378 -27.4673
lfingers 7.12502
lthumb -3.74023 2.47963
rfemur -23.9506 -5.87111 14.026
rtibia 64.3196
rfoot -14.7542 -0.899383
rtoes 15.6876
lfemur 3.99885 2.17163 -19.2496
ltibia 12.6813
lfoot -13.3343 11.581
ltoes -31.9654
768
root 45.0584 16.7094 7.0195 -190.948 215.646 -162.8
lowerback 13.334 1.35243 -14.7552
upperback 5.49212 -0.293044 -3.53226
thorax -1.51229 -0.362447 4.55912
lowerneck -17.1045 -9.98004 -7.32412
upperneck 22.9362 -15.6881 12.6548
head 12.0373 -6.33493 3.30321
rclavicle -3.25758e-014 -8.06817e-014
rhumerus -46.6969 8.01148 -86.6921
rradius 35.4364
rwrist -10.7262
rhand -22.7651 -38.0643
rfingers 7.12502
rthumb 3.66993 -68.0125
lclavicle -3.25758e-014 -8.06817e-014
lhumerus -18.5626 -26.1715 83.0753
lradius 45.7054
lwrist 9.57652
lhand -30.4394 -27.2386
lfingers 7.12502
lthumb -3.74182 2.70829
rfemur -24.219 -5.98816 14.2488
rtibia 62.1083
rfoot -15.1229 -1.66082
rtoes 14.1813
lfemur 5.74259 2.01145 -19.6397
ltibia 11.2239
lfoot -13.0545 12.3912
ltoes -34.2986
769
root 44.9925 16.7256 7.17454 -191.335 216.179 -162.244
lowerback 13.1072 1.26272 -15.0044
upperback 5.45521 -0.4052 -3.56578
thorax -1.40228 -0.427036 4.67407
lowerneck -17.2799 -10.0698 -6.91355
upperneck 22.8355 -15.8782 12.5269
head 12.0062 -6.39627 3.14607
rclavicle 6.50336e-014 -9.28387e-015
rhumerus -47.7102 7.60006 -85.1955
rradius 34.9233
rwrist -8.87721
rhand -22.4942 -38.0065
rfingers 7.12502
rthumb 3.93154 -67.95
lclavicle 6.50336e-014 -9.28387e-015
lhumerus -17.153 -27.9676 82.1339
lradius 47.489
lwrist 10.2547
lhand -29.8673 -27.3176
lfingers 7.12502
lthumb -3.18933 2.6383
rfemur -25.363 -7.08981 14.101
rtibia 60.4997
rfoot -15.3986 -1.47212
rtoes 13.4062
lfemur 7.17565 1.86116 -20.2404
ltibia 9.91394
lfoot -13.2936 12.514
ltoes -32.6859
770
root 44.9457 16.7361 7.32174 -191.564 216.881 -161.843
lowerback 13.0116 1.19606 -14.9397
upperback 5.34116 -0.48102 -3.60213
thorax -1.4626 -0.454362 4.61087
lowerneck -17.5166 -10.1117 -6.46313
upperneck 22.814 -16.0098 12.3562
head 12.0019 -6.42718 2.97701
rclavicle -5.48459e-014 1.45237e-014
rhumerus -48.8428 7.48436 -83.8585
rradius 34.8645
rwrist -7.51972
rhand -22.3628 -37.8634
rfingers 7.12502
rthumb 4.05843 -67.8045
lclavicle -5.48459e-014 1.45237e-014
lhumerus -15.734 -29.7561 81.0111
lradius 49.441
lwrist 10.8379
lhand -29.1955 -27.3353
lfingers 7.12502
lthumb -2.54054 2.62934
rfemur -26.7398 -7.97214 14.1978
rtibia 59.0025
rfoot -15.709 -1.33815
rtoes 13.8112
lfemur 8.36822 1.61589 -20.7559
ltibia 8.76115
lfoot -13.7745 12.8028
ltoes -30.529
771
root 44.8777 16.7354 7.4636 -191.78 217.56 -161.362
lowerback 12.7073 1.16211 -15.1802
upperback 5.25583 -0.506142 -3.60947
thorax -1.37833 -0.471592 4.73595
lowerneck -17.7723 -10.1101 -6.0102
upperneck 22.8135 -16.1097 12.2656
head 12.014 -6.43311 2.84273
rclavicle -1.0297e-013 8.74653e-015
rhumerus -49.9065 7.62291 -82.7209
rradius 34.734
rwrist -6.64518
rhand -22.295 -37.4368
rfingers 7.12502
rthumb 4.12392 -67.3767
lclavicle -1.0297e-013 8.74653e-015
lhumerus -13.6417 -30.5836 79.8949
lradius 50.2296
lwrist 10.5638
lhand -28.5725 -27.6271
lfingers 7.12502
lthumb -1.93887 2.34384
rfemur -27.9358 -8.58393 14.4603
rtibia 57.311
rfoot -16.0429 -2.55323
rtoes 12.7558
lfemur 9.54309 1.63503 -21.1439
ltibia 7.56685
lfoot -13.9981 12.9751
ltoes -30.4733
772
root 44.814 16.7273 7.62555 -192.949 217.827 -159.8
lowerback 12.592 1.0991 -16.0462
upperback 5.27888 -0.685821 -3.92494
thorax -1.23452 -0.583489 4.88972
lowerneck -18.059 -10.1368 -5.6873
upperneck 22.8336 -16.2627 12.3174
head 12.0735 -6.45487 2.76942
rclavicle -7.14507e-014 6.72389e-014
rhumerus -50.9013 7.79874 -81.5529
rradius 34.689
rwrist -6.31683
rhand -22.0936 -36.8897
rfingers 7.12502
rthumb 4.3184 -66.8256
lclavicle -7.14507e-014 6.72389e-014
lhumerus -11.7955 -31.8023 78.5259
lradius 51.5245
lwrist 10.6829
lhand -28.6883 -27.5508
lfingers 7.12502
lthumb -2.05069 2.41905
rfemur -28.5469 -9.43003 13.2085
rtibia 55.1094
rfoot -15.8714 -2.29315
rtoes 20.6926
lfemur 11.0941 1.44544 -22.8383
ltibia 6.29122
lfoot -14.414 13.0797
ltoes -28.7028
773
root 44.7603 16.7009 7.79013 -193.95 218.232 -158.189
lowerback 12.3113 0.889802 -16.858
upperback 5.10491 -1.02873 -4.13741
thorax -1.17714 -0.75833 5.14156
lowerneck -18.1766 -10.0462 -5.76014
upperneck 22.9499 -16.127 12.2926
head 12.131 -6.39412 2.79314
rclavicle 5.7573e-014 -1.71949e-014
rhumerus -52.09 8.54819 -80.243
rradius 35.0184
rwrist -6.63622
rhand -21.6072 -36.5364
rfingers 7.12502
rthumb 4.7881 -66.4623
lclavicle 5.7573e-014 -1.71949e-014
lhumerus -10.4785 -32.5141 77.3664
lradius 53.0521
lwrist 10.6078
lhand -28.9726 -27.2651
lfingers 7.12502
lthumb -2.32527 2.70196
rfemur -29.2792 -10.2108 12.1418
rtibia 52.701
rfoot -16.1019 -3.08699
rtoes 20.9805
lfemur 12.3561 1.27828 -24.6048
ltibia 5.10871
lfoot -14.9728 13.1244
ltoes -24.0399
774
root 44.6954 16.6696 7.94423 -194.518 218.425 -157.31
lowerback 12.2705 0.348636 -17.5198
upperback 4.67985 -1.84245 -3.85079
thorax -1.40343 -1.12587 5.91167
lowerneck -17.6636 -9.69379 -6.67396
upperneck 23.1015 -15.3806 12.2393
head 12.0757 -6.16663 3.08252
rclavicle -1.55052e-014 3.02153e-014
rhumerus -53.6534 10.5788 -78.8538
rradius 35.6419
rwrist -7.28039
rhand -20.9037 -36.2757
rfingers 7.12502
rthumb 5.46736 -66.1852
lclavicle -1.55052e-014 3.02153e-014
lhumerus -9.99929 -31.8372 76.9052
lradius 54.3987
lwrist 9.89154
lhand -28.7271 -27.2334
lfingers 7.12502
lthumb -2.0881 2.73615
rfemur -29.2792 -10.2108 12.1418
rtibia 52.701
rfoot -16.1019 -3.08699
rtoes 20.9805
lfemur 13.5167 1.40912 -25.4697
ltibia 4.10529
lfoot -15.255 12.9552
ltoes -21.714
